# xmcd
#
# Track frame offsets: 
#        151
#        18014
#        37159
#        53680
#        67583
#        83136
#        98515
#        116408
#        133539
#        152084
#        168611
#        185668
#        202715
#        219012
#        236313
#        252156
#
# Disc length: 3571 seconds
#
# Revision: 0
# Processed by: cddbd v1.5.1PL2 Copyright (c) Steve Scherf et al.
# Submitted via: ExactAudioCopy v0.95b4
#
DISCID=bc0df110
DTITLE=เฉลิมพล  มาลาคำ - รวมฮิต 16 เพลงดัง ตลับเพชร
DYEAR=2005
DGENRE=Country
TTITLE0=มุ้นอุ้ยปุ้ย
TTITLE1=รอเมียพี่เผลอ
TTITLE2=สงสารน้องเมีย
TTITLE3=เมือบ้านแน่เด้อ
TTITLE4=ดีกันเนาะ
TTITLE5=บัตรเชิญสีชมพู
TTITLE6=กัณฑ์เทศน์โศก
TTITLE7=ผู้เฒ่าคอย
TTITLE8=หล๋อยอยู่หล๋อยกิน
TTITLE9=ขาดเธอขาดใจ
TTITLE10=แต่งงานเถิดน้อง
TTITLE11=อย่าถามถึงอดีต
TTITLE12=คุณนายมือถือ
TTITLE13=ลาบ้าน
TTITLE14=อดีตรักที่บุญบั้งไฟ
TTITLE15=ไผ่หม่าข้าวเปลือก
EXTD=
EXTT0=
EXTT1=
EXTT2=
EXTT3=
EXTT4=
EXTT5=
EXTT6=
EXTT7=
EXTT8=
EXTT9=
EXTT10=
EXTT11=
EXTT12=
EXTT13=
EXTT14=
EXTT15=
PLAYORDER=
